<?xml version="1.0" standalone="no"?>
<svg xmlns:xlink="http://www.w3.org/1999/xlink" id="wave" style="transform:rotate(180deg); transition: 0.3s" viewBox="0 0 1440 100" version="1.1" xmlns="http://www.w3.org/2000/svg"><defs><linearGradient id="sw-gradient-0" x1="0" x2="0" y1="1" y2="0"><stop stop-color="rgba(255, 249, 234, 1)" offset="0%"/><stop stop-color="rgba(255, 249, 234, 1)" offset="100%"/></linearGradient></defs><path style="transform:translate(0, 0px); opacity:1" fill="url(#sw-gradient-0)" d="M0,30L24,33.3C48,37,96,43,144,43.3C192,43,240,37,288,43.3C336,50,384,70,432,78.3C480,87,528,83,576,73.3C624,63,672,47,720,43.3C768,40,816,50,864,55C912,60,960,60,1008,56.7C1056,53,1104,47,1152,41.7C1200,37,1248,33,1296,31.7C1344,30,1392,30,1440,26.7C1488,23,1536,17,1584,18.3C1632,20,1680,30,1728,33.3C1776,37,1824,33,1872,35C1920,37,1968,43,2016,53.3C2064,63,2112,77,2160,70C2208,63,2256,37,2304,28.3C2352,20,2400,30,2448,40C2496,50,2544,60,2592,60C2640,60,2688,50,2736,43.3C2784,37,2832,33,2880,26.7C2928,20,2976,10,3024,16.7C3072,23,3120,47,3168,46.7C3216,47,3264,23,3312,11.7C3360,0,3408,0,3432,0L3456,0L3456,100L3432,100C3408,100,3360,100,3312,100C3264,100,3216,100,3168,100C3120,100,3072,100,3024,100C2976,100,2928,100,2880,100C2832,100,2784,100,2736,100C2688,100,2640,100,2592,100C2544,100,2496,100,2448,100C2400,100,2352,100,2304,100C2256,100,2208,100,2160,100C2112,100,2064,100,2016,100C1968,100,1920,100,1872,100C1824,100,1776,100,1728,100C1680,100,1632,100,1584,100C1536,100,1488,100,1440,100C1392,100,1344,100,1296,100C1248,100,1200,100,1152,100C1104,100,1056,100,1008,100C960,100,912,100,864,100C816,100,768,100,720,100C672,100,624,100,576,100C528,100,480,100,432,100C384,100,336,100,288,100C240,100,192,100,144,100C96,100,48,100,24,100L0,100Z"/></svg>